# xmcd
#
# Track frame offsets:
#	150
#	15432
#	33611
#	46689
#	64839
#	81308
#	94261
#	109257
#	123807
#	141414
#	154174
#	166119
#
# Disc length: 2413 seconds
#
# Revision: 1
# Processed by: cddbd v1.5.2PL0 Copyright (c) Steve Scherf et al.
# Submitted via: audiograbber 1.83.01
#
DISCID=97096b0c
DTITLE=Nowhere Road - Copperline Hills
DYEAR=2008
DGENRE=Country
TTITLE0=Harley Day
TTITLE1=Racing Superstar
TTITLE2=Small Town Blues
TTITLE3=Copperline Hils
TTITLE4=Lay Down Marie
TTITLE5=My World Aint Turning Yet
TTITLE6=Saturday Nights Alright (Cover)
TTITLE7=In The Silennce of the Night
TTITLE8=Frozen Lonley
TTITLE9=Nowhere Road
TTITLE10=Cheatin Side of Me
TTITLE11=Memories of My Youth
EXTD=www.coopermoonshinestills.com
EXTT0=
EXTT1=
EXTT2=
EXTT3=
EXTT4=
EXTT5=
EXTT6=
EXTT7=
EXTT8=
EXTT9=
EXTT10=
EXTT11=
PLAYORDER=
